#!OML:ASF F:\VICON\USERDATA\INSTALL\rory3\rory3.ASF
:FULLY-SPECIFIED
:DEGREES
1038
root 1.41639 17.2851 -4.9389 52.9381 22.2877 13.7971
lowerback 37.4455 6.35855 4.59942
upperback 7.37668 9.86402 2.13805
thorax -9.78243 4.40594 -3.99798
lowerneck -15.4377 -5.52088 -5.55007
upperneck 9.81862 -7.0226 5.79398
head 5.89118 -3.18931 2.04911
rclavicle -4.13472e-014 2.06736e-014
rhumerus 44.3301 -21.0494 -49.1791
rradius 28.3708
rwrist 9.73374
rhand -19.1988 10.2734
rfingers 7.12502
rthumb 7.11326 -19.587
lclavicle -4.13472e-014 2.06736e-014
lhumerus -68.8302 38.6587 -4.43325
lradius 10.0731
lwrist -40.4632
lhand -29.4827 18.0151
lfingers 7.12502
lthumb -2.81786 47.9763
rfemur -52.1391 -8.20898 -17.6925
rtibia 35.9931
rfoot -29.9619 -29.2689
rtoes -3.54168
lfemur -78.5387 -7.37862 -17.2189
ltibia 24.8649
lfoot 6.7542 -3.05496
ltoes -12.523
1039
root 1.414 17.2578 -4.94195 53.5652 22.0851 13.9889
lowerback 37.5559 6.62847 4.37461
upperback 7.44972 10.1204 2.27491
thorax -9.78125 4.52165 -3.84355
lowerneck -15.4318 -5.63649 -5.59362
upperneck 9.67355 -7.1793 5.90892
head 5.85949 -3.26019 2.07705
rclavicle -2.8625e-014 -6.2816e-014
rhumerus 44.5132 -20.2997 -49.6087
rradius 28.1875
rwrist 9.80653
rhand -18.8536 10.0081
rfingers 7.12502
rthumb 7.44651 -19.8408
lclavicle -2.8625e-014 -6.2816e-014
lhumerus -70.4766 39.3189 -6.7582
lradius 10.1122
lwrist -41.7105
lhand -29.9077 18.5167
lfingers 7.12502
lthumb -3.22834 48.472
rfemur -52.7816 -8.49887 -18.0413
rtibia 36.3215
rfoot -30.1862 -29.1934
rtoes -3.30446
lfemur -79.3044 -7.16605 -17.8163
ltibia 25.2198
lfoot 6.74303 -3.50306
ltoes -12.1738
1040
root 1.43223 17.2376 -4.93171 53.7077 21.744 14.0356
lowerback 38.429 6.75438 4.47083
upperback 7.33731 10.3169 2.10161
thorax -10.1497 4.57506 -4.22755
lowerneck -15.2062 -5.64348 -5.23852
upperneck 9.51692 -7.27342 5.97031
head 5.76816 -3.29313 2.03675
rclavicle -3.49861e-014 -2.38542e-014
rhumerus 44.5282 -19.7149 -50.8065
rradius 27.9456
rwrist 10.3585
rhand -18.4476 10.1278
rfingers 7.12502
rthumb 7.8383 -19.7069
lclavicle -3.49861e-014 -2.38542e-014
lhumerus -70.0866 38.7604 -6.34403
lradius 10.2286
lwrist -40.1622
lhand -30.9736 20.1872
lfingers 7.12502
lthumb -4.25769 50.1244
rfemur -53.0601 -8.51093 -18.3955
rtibia 36.5645
rfoot -30.2605 -29.0643
rtoes -3.40844
lfemur -79.5928 -7.17427 -17.8845
ltibia 25.5954
lfoot 6.47828 -3.23721
ltoes -11.9037
1041
root 1.44268 17.2154 -4.92926 54.1656 21.5867 14.2357
lowerback 38.4359 6.98089 4.34295
upperback 7.60182 10.5525 2.34062
thorax -9.90312 4.69779 -3.98132
lowerneck -15.2011 -5.70965 -5.23281
upperneck 9.21268 -7.33689 5.85125
head 5.66948 -3.33785 1.99437
rclavicle -1.59028e-014 -1.86858e-014
rhumerus 44.9331 -19.1869 -51.4932
rradius 27.6836
rwrist 10.6437
rhand -18.2173 9.97625
rfingers 7.12502
rthumb 8.06066 -19.85
lclavicle -1.59028e-014 -1.86858e-014
lhumerus -70.9334 39.2381 -7.02371
lradius 10.3096
lwrist -39.7904
lhand -31.2526 20.481
lfingers 7.12502
lthumb -4.52709 50.4126
rfemur -53.4553 -8.88209 -18.6339
rtibia 36.8048
rfoot -30.1694 -29.045
rtoes -3.60523
lfemur -80.1718 -7.16276 -18.2713
ltibia 25.9616
lfoot 6.3984 -3.42232
ltoes -11.2653
1042
root 1.45722 17.199 -4.9303 54.5935 21.6337 14.3762
lowerback 38.3488 7.08977 4.46833
upperback 7.86109 10.7433 2.62092
thorax -9.60294 4.79894 -3.79105
lowerneck -15.2458 -5.78063 -5.2357
upperneck 9.05158 -7.40783 5.7238
head 5.62449 -3.38395 1.94778
rclavicle 1.27222e-014 3.22031e-014
rhumerus 45.2306 -18.5961 -52.0689
rradius 27.4467
rwrist 10.7907
rhand -17.9315 9.7377
rfingers 7.12502
rthumb 8.33646 -20.0778
lclavicle 1.27222e-014 3.22031e-014
lhumerus -72.1036 39.8209 -8.30932
lradius 10.3151
lwrist -40.0492
lhand -31.0253 19.9615
lfingers 7.12502
lthumb -4.30761 49.8977
rfemur -53.7534 -9.3345 -18.6451
rtibia 36.9822
rfoot -30.1398 -28.9632
rtoes -3.74277
lfemur -80.7671 -7.2278 -18.4769
ltibia 26.3452
lfoot 6.34579 -3.65485
ltoes -11.0401
1043
root 1.47618 17.182 -4.92783 54.9568 21.6556 14.4745
lowerback 38.4331 7.11278 4.66861
upperback 7.96518 10.8575 2.77403
thorax -9.50432 4.84985 -3.76923
lowerneck -15.2304 -5.83367 -5.30601
upperneck 9.09756 -7.48451 5.86315
head 5.64931 -3.41274 1.99472
rclavicle 2.54444e-014 -4.6118e-014
rhumerus 45.4801 -17.986 -52.9727
rradius 27.0544
rwrist 11.2879
rhand -17.6466 9.62506
rfingers 7.12502
rthumb 8.61136 -20.1793
lclavicle 2.54444e-014 -4.6118e-014
lhumerus -72.8432 39.9238 -9.18174
lradius 10.3206
lwrist -39.798
lhand -31.0656 19.5912
lfingers 7.12502
lthumb -4.34646 49.5266
rfemur -54.0309 -9.73491 -18.6616
rtibia 37.1938
rfoot -30.1627 -28.779
rtoes -3.63756
lfemur -81.3002 -7.35784 -18.5122
ltibia 26.6902
lfoot 6.21457 -3.72206
ltoes -11.2113
1044
root 1.49836 17.1566 -4.92252 55.3491 21.4807 14.6838
lowerback 38.5043 7.16315 4.6953
upperback 8.0821 10.9285 2.85173
thorax -9.40344 4.88613 -3.72273
lowerneck -15.1024 -5.82554 -5.331
upperneck 8.93886 -7.48811 6.02706
head 5.58655 -3.40767 2.05429
rclavicle -1.46306e-013 3.89618e-014
rhumerus 45.6263 -17.2518 -53.5792
rradius 26.6789
rwrist 11.248
rhand -17.8109 9.82753
rfingers 7.12502
rthumb 8.45285 -19.9833
lclavicle -1.46306e-013 3.89618e-014
lhumerus -73.131 39.8359 -9.36904
lradius 10.3485
lwrist -39.0225
lhand -31.1696 19.551
lfingers 7.12502
lthumb -4.44688 49.4843
rfemur -54.334 -10.2398 -18.8467
rtibia 37.4212
rfoot -30.0707 -28.5791
rtoes -3.79298
lfemur -81.8167 -7.60076 -18.5457
ltibia 27.0151
lfoot 6.00527 -3.54766
ltoes -11.6293
